<svg width="373" height="6" viewBox="0 0 373 6" fill="none" xmlns="http://www.w3.org/2000/svg">
<g clip-path="url(#clip0_204_109)">
<path d="M1.21765 2.83542C5.33078 -0.105295 9.4431 -0.105295 13.5562 2.83542C17.6694 5.77613 21.7817 5.77613 25.8948 2.83542C30.0079 -0.105295 34.1202 -0.105295 38.2334 2.83542C42.3465 5.77613 46.4588 5.77613 50.5719 2.83542C54.6851 -0.105295 58.7974 -0.105295 62.9105 2.83542C67.0236 5.77613 71.136 5.77613 75.2491 2.83542C79.3622 -0.105295 83.4745 -0.105295 87.5877 2.83542C91.7008 5.77613 95.8131 5.77613 99.9262 2.83542C104.039 -0.105295 108.152 -0.105295 112.265 2.83542C116.378 5.77613 120.49 5.77613 124.603 2.83542" stroke="#7F7F7F" stroke-width="1.40645" stroke-linecap="round"/>
</g>
<g clip-path="url(#clip1_204_109)">
<path d="M124.73 2.83542C128.843 -0.105295 132.955 -0.105295 137.069 2.83542C141.182 5.77613 145.294 5.77613 149.407 2.83542C153.52 -0.105295 157.633 -0.105295 161.746 2.83542C165.859 5.77613 169.971 5.77613 174.084 2.83542C178.197 -0.105295 182.31 -0.105295 186.423 2.83542C190.536 5.77613 194.648 5.77613 198.761 2.83542C202.875 -0.105295 206.987 -0.105295 211.1 2.83542C215.213 5.77613 219.325 5.77613 223.439 2.83542C227.552 -0.105295 231.664 -0.105295 235.777 2.83542C239.89 5.77613 244.003 5.77613 248.116 2.83542" stroke="#7F7F7F" stroke-width="1.40645" stroke-linecap="round"/>
</g>
<g clip-path="url(#clip2_204_109)">
<path d="M248.218 2.83542C252.331 -0.105295 256.443 -0.105295 260.556 2.83542C264.669 5.77613 268.782 5.77613 272.895 2.83542C277.008 -0.105295 281.12 -0.105295 285.233 2.83542C289.346 5.77613 293.459 5.77613 297.572 2.83542C301.685 -0.105295 305.797 -0.105295 309.91 2.83542C314.024 5.77613 318.136 5.77613 322.249 2.83542C326.362 -0.105295 330.474 -0.105295 334.588 2.83542C338.701 5.77613 342.813 5.77613 346.926 2.83542C351.039 -0.105295 355.152 -0.105295 359.265 2.83542C363.378 5.77613 367.49 5.77613 371.603 2.83542" stroke="#7F7F7F" stroke-width="1.40645" stroke-linecap="round"/>
</g>
<defs>
<clipPath id="clip0_204_109">
<rect width="125.821" height="5.67097" fill="white"/>
</clipPath>
<clipPath id="clip1_204_109">
<rect width="125.821" height="5.67097" fill="white" transform="translate(123.512)"/>
</clipPath>
<clipPath id="clip2_204_109">
<rect width="125.821" height="5.67097" fill="white" transform="translate(247)"/>
</clipPath>
</defs>
</svg>
