<svg width="744" height="6" viewBox="0 0 744 6" fill="none" xmlns="http://www.w3.org/2000/svg">
<g clip-path="url(#clip0_204_133)">
<path d="M1.21753 2.83542C5.33066 -0.105295 9.44298 -0.105295 13.5561 2.83542C17.6692 5.77613 21.7815 5.77613 25.8947 2.83542C30.0078 -0.105295 34.1201 -0.105295 38.2332 2.83542C42.3464 5.77613 46.4587 5.77613 50.5718 2.83542C54.685 -0.105295 58.7973 -0.105295 62.9104 2.83542C67.0235 5.77613 71.1358 5.77613 75.249 2.83542C79.3621 -0.105295 83.4744 -0.105295 87.5875 2.83542C91.7007 5.77613 95.813 5.77613 99.9261 2.83542C104.039 -0.105295 108.152 -0.105295 112.265 2.83542C116.378 5.77613 120.49 5.77613 124.603 2.83542" stroke="#7F7F7F" stroke-width="1.40645" stroke-linecap="round"/>
</g>
<g clip-path="url(#clip1_204_133)">
<path d="M124.73 2.83542C128.843 -0.105295 132.955 -0.105295 137.069 2.83542C141.182 5.77613 145.294 5.77613 149.407 2.83542C153.52 -0.105295 157.633 -0.105295 161.746 2.83542C165.859 5.77613 169.971 5.77613 174.084 2.83542C178.197 -0.105295 182.31 -0.105295 186.423 2.83542C190.536 5.77613 194.648 5.77613 198.761 2.83542C202.875 -0.105295 206.987 -0.105295 211.1 2.83542C215.213 5.77613 219.325 5.77613 223.439 2.83542C227.552 -0.105295 231.664 -0.105295 235.777 2.83542C239.89 5.77613 244.003 5.77613 248.116 2.83542" stroke="#7F7F7F" stroke-width="1.40645" stroke-linecap="round"/>
</g>
<g clip-path="url(#clip2_204_133)">
<path d="M248.218 2.83542C252.331 -0.105295 256.443 -0.105295 260.556 2.83542C264.669 5.77613 268.782 5.77613 272.895 2.83542C277.008 -0.105295 281.12 -0.105295 285.233 2.83542C289.346 5.77613 293.459 5.77613 297.572 2.83542C301.685 -0.105295 305.797 -0.105295 309.91 2.83542C314.024 5.77613 318.136 5.77613 322.249 2.83542C326.362 -0.105295 330.474 -0.105295 334.588 2.83542C338.701 5.77613 342.813 5.77613 346.926 2.83542C351.039 -0.105295 355.152 -0.105295 359.265 2.83542C363.378 5.77613 367.49 5.77613 371.603 2.83542" stroke="#7F7F7F" stroke-width="1.40645" stroke-linecap="round"/>
</g>
<g clip-path="url(#clip3_204_133)">
<path d="M372.039 2.83542C376.152 -0.105295 380.264 -0.105295 384.377 2.83542C388.49 5.77613 392.603 5.77613 396.716 2.83542C400.829 -0.105295 404.941 -0.105295 409.054 2.83542C413.167 5.77613 417.28 5.77613 421.393 2.83542C425.506 -0.105295 429.618 -0.105295 433.731 2.83542C437.845 5.77613 441.957 5.77613 446.07 2.83542C450.183 -0.105295 454.295 -0.105295 458.409 2.83542C462.522 5.77613 466.634 5.77613 470.747 2.83542C474.86 -0.105295 478.973 -0.105295 483.086 2.83542C487.199 5.77613 491.311 5.77613 495.424 2.83542" stroke="#7F7F7F" stroke-width="1.40645" stroke-linecap="round"/>
</g>
<g clip-path="url(#clip4_204_133)">
<path d="M495.551 2.83542C499.664 -0.105295 503.776 -0.105295 507.89 2.83542C512.003 5.77613 516.115 5.77613 520.228 2.83542C524.341 -0.105295 528.454 -0.105295 532.567 2.83542C536.68 5.77613 540.792 5.77613 544.905 2.83542C549.018 -0.105295 553.131 -0.105295 557.244 2.83542C561.357 5.77613 565.469 5.77613 569.582 2.83542C573.696 -0.105295 577.808 -0.105295 581.921 2.83542C586.034 5.77613 590.146 5.77613 594.26 2.83542C598.373 -0.105295 602.485 -0.105295 606.598 2.83542C610.711 5.77613 614.824 5.77613 618.937 2.83542" stroke="#7F7F7F" stroke-width="1.40645" stroke-linecap="round"/>
</g>
<g clip-path="url(#clip5_204_133)">
<path d="M619.039 2.83542C623.152 -0.105295 627.264 -0.105295 631.377 2.83542C635.49 5.77613 639.603 5.77613 643.716 2.83542C647.829 -0.105295 651.941 -0.105295 656.054 2.83542C660.167 5.77613 664.28 5.77613 668.393 2.83542C672.506 -0.105295 676.618 -0.105295 680.731 2.83542C684.845 5.77613 688.957 5.77613 693.07 2.83542C697.183 -0.105295 701.295 -0.105295 705.409 2.83542C709.522 5.77613 713.634 5.77613 717.747 2.83542C721.86 -0.105295 725.973 -0.105295 730.086 2.83542C734.199 5.77613 738.311 5.77613 742.424 2.83542" stroke="#7F7F7F" stroke-width="1.40645" stroke-linecap="round"/>
</g>
<defs>
<clipPath id="clip0_204_133">
<rect width="125.821" height="5.67097" fill="white"/>
</clipPath>
<clipPath id="clip1_204_133">
<rect width="125.821" height="5.67097" fill="white" transform="translate(123.512)"/>
</clipPath>
<clipPath id="clip2_204_133">
<rect width="125.821" height="5.67097" fill="white" transform="translate(247)"/>
</clipPath>
<clipPath id="clip3_204_133">
<rect width="125.821" height="5.67097" fill="white" transform="translate(370.821)"/>
</clipPath>
<clipPath id="clip4_204_133">
<rect width="125.821" height="5.67097" fill="white" transform="translate(494.333)"/>
</clipPath>
<clipPath id="clip5_204_133">
<rect width="125.821" height="5.67097" fill="white" transform="translate(617.821)"/>
</clipPath>
</defs>
</svg>
