<svg width="512" height="512" viewBox="0 0 512 512" fill="none" xmlns="http://www.w3.org/2000/svg">
<rect width="512" height="512" fill="white"/>
<g clip-path="url(#clip0_7_158)">
<path d="M296.342 184.303H296.648C296.648 196.353 302.29 209.182 313.271 222.134C324.188 235.009 339.182 246.521 354.521 255.377C367.642 262.952 382.074 266.146 398.861 267.255C416.627 268.428 433.596 267.243 455.146 267.243V287.517L455.147 307.789C437.198 307.789 415.549 308.991 396.19 307.713C375.854 306.37 354.654 302.272 334.248 290.491C316.062 279.991 297.052 265.699 282.346 248.354C278.813 244.189 275.459 239.757 272.401 235.082H239.746C236.688 239.757 233.334 244.188 229.802 248.354C215.096 265.699 196.085 279.991 177.898 290.491C157.493 302.272 136.293 306.37 115.957 307.713C96.5985 308.991 74.9491 307.789 57 307.789V267.243C78.5508 267.243 95.5196 268.428 113.285 267.255C130.073 266.146 144.505 262.952 157.625 255.377C172.964 246.521 187.959 235.009 198.876 222.134C208.555 210.718 214.085 199.397 215.26 188.62V184H296.342V184.303Z" fill="black"/>
<path d="M312.569 329L256 272.431L199.431 329H312.569Z" fill="black"/>
</g>
<defs>
<clipPath id="clip0_7_158">
<rect width="398" height="145" fill="white" transform="translate(57 184)"/>
</clipPath>
</defs>
</svg>
